<svg xmlns="http://www.w3.org/2000/svg" viewBox="0 0 900 500" style="background: #ffffff; font-family: -apple-system, BlinkMacSystemFont, 'Segoe UI', 'Noto Sans', Helvetica, Arial, sans-serif;">
  <defs>
    <linearGradient id="mem1Gradient" x1="0%" y1="0%" x2="0%" y2="100%">
      <stop offset="0%" style="stop-color:#4CAF50;stop-opacity:1" />
      <stop offset="100%" style="stop-color:#2E7D32;stop-opacity:1" />
    </linearGradient>
    <linearGradient id="mem0Gradient" x1="0%" y1="0%" x2="0%" y2="100%">
      <stop offset="0%" style="stop-color:#FF5722;stop-opacity:1" />
      <stop offset="100%" style="stop-color:#D84315;stop-opacity:1" />
    </linearGradient>
    <filter id="shadow" x="-20%" y="-20%" width="140%" height="140%">
      <feDropShadow dx="0" dy="2" stdDeviation="3" flood-opacity="0.15"/>
    </filter>
  </defs>

  <!-- 标题 -->
  <text x="450" y="30" text-anchor="middle" font-size="20" font-weight="600" fill="#1a1a1a">📊 Token 消耗对比：mem1 vs mem0</text>
  <text x="450" y="52" text-anchor="middle" font-size="13" fill="#666">10 轮对话 5 次测试平均值</text>

  <!-- 左侧：柱状图 -->
  <g transform="translate(50, 80)">
    <text x="180" y="-10" text-anchor="middle" font-size="14" font-weight="600" fill="#333">总 Token 消耗对比</text>

    <line x1="50" y1="10" x2="50" y2="220" stroke="#e0e0e0" stroke-width="2"/>
    <line x1="50" y1="220" x2="350" y2="220" stroke="#e0e0e0" stroke-width="2"/>

    <text x="40" y="220" text-anchor="end" font-size="10" fill="#999">0</text>
    <text x="40" y="165" text-anchor="end" font-size="10" fill="#999">100K</text>
    <text x="40" y="110" text-anchor="end" font-size="10" fill="#999">200K</text>
    <text x="40" y="55" text-anchor="end" font-size="10" fill="#999">300K</text>

    <line x1="50" y1="165" x2="350" y2="165" stroke="#f0f0f0" stroke-width="1"/>
    <line x1="50" y1="110" x2="350" y2="110" stroke="#f0f0f0" stroke-width="1"/>
    <line x1="50" y1="55" x2="350" y2="55" stroke="#f0f0f0" stroke-width="1"/>

    <rect x="80" y="125" width="60" height="95" fill="url(#mem1Gradient)" rx="6" filter="url(#shadow)"/>
    <text x="110" y="175" text-anchor="middle" font-size="11" font-weight="600" fill="white">134K</text>
    <text x="110" y="245" text-anchor="middle" font-size="12" font-weight="600" fill="#4CAF50">mem1 ✅</text>

    <rect x="200" y="10" width="60" height="210" fill="url(#mem0Gradient)" rx="6" filter="url(#shadow)"/>
    <text x="230" y="115" text-anchor="middle" font-size="11" font-weight="600" fill="white">258K</text>
    <text x="230" y="245" text-anchor="middle" font-size="12" font-weight="600" fill="#FF5722">mem0</text>

    <g transform="translate(290, 80)">
      <rect x="0" y="0" width="70" height="50" fill="#E8F5E9" rx="8" stroke="#4CAF50" stroke-width="2"/>
      <text x="35" y="20" text-anchor="middle" font-size="11" fill="#2E7D32" font-weight="600">节省</text>
      <text x="35" y="40" text-anchor="middle" font-size="16" fill="#4CAF50" font-weight="700">47.9%</text>
    </g>
  </g>

  <!-- 右侧：折线图 -->
  <g transform="translate(420, 80)">
    <text x="215" y="-10" text-anchor="middle" font-size="14" font-weight="600" fill="#333">每轮对话 Token 趋势</text>

    <line x1="50" y1="10" x2="50" y2="220" stroke="#e0e0e0" stroke-width="2"/>
    <line x1="50" y1="220" x2="420" y2="220" stroke="#e0e0e0" stroke-width="2"/>

    <text x="40" y="220" text-anchor="end" font-size="9" fill="#999">0</text>
    <text x="40" y="165" text-anchor="end" font-size="9" fill="#999">10K</text>
    <text x="40" y="110" text-anchor="end" font-size="9" fill="#999">20K</text>
    <text x="40" y="55" text-anchor="end" font-size="9" fill="#999">30K</text>
    <text x="40" y="15" text-anchor="end" font-size="9" fill="#999">40K</text>

    <line x1="50" y1="165" x2="420" y2="165" stroke="#f0f0f0" stroke-width="1"/>
    <line x1="50" y1="110" x2="420" y2="110" stroke="#f0f0f0" stroke-width="1"/>
    <line x1="50" y1="55" x2="420" y2="55" stroke="#f0f0f0" stroke-width="1"/>

    <text x="50" y="238" text-anchor="middle" font-size="9" fill="#666">1</text>
    <text x="91" y="238" text-anchor="middle" font-size="9" fill="#666">2</text>
    <text x="132" y="238" text-anchor="middle" font-size="9" fill="#666">3</text>
    <text x="173" y="238" text-anchor="middle" font-size="9" fill="#666">4</text>
    <text x="214" y="238" text-anchor="middle" font-size="9" fill="#666">5</text>
    <text x="255" y="238" text-anchor="middle" font-size="9" fill="#666">6</text>
    <text x="296" y="238" text-anchor="middle" font-size="9" fill="#666">7</text>
    <text x="337" y="238" text-anchor="middle" font-size="9" fill="#666">8</text>
    <text x="378" y="238" text-anchor="middle" font-size="9" fill="#666">9</text>
    <text x="419" y="238" text-anchor="middle" font-size="9" fill="#666">10</text>
    <text x="235" y="258" text-anchor="middle" font-size="10" fill="#999">对话轮次</text>

    <polyline fill="none" stroke="#4CAF50" stroke-width="3" stroke-linecap="round" stroke-linejoin="round"
      points="50,195 91,179 132,177 173,172 214,165 255,170 296,158 337,141 378,174 419,173"/>
    <circle cx="50" cy="195" r="5" fill="#4CAF50"/>
    <circle cx="91" cy="179" r="5" fill="#4CAF50"/>
    <circle cx="132" cy="177" r="5" fill="#4CAF50"/>
    <circle cx="173" cy="172" r="5" fill="#4CAF50"/>
    <circle cx="214" cy="165" r="5" fill="#4CAF50"/>
    <circle cx="255" cy="170" r="5" fill="#4CAF50"/>
    <circle cx="296" cy="158" r="5" fill="#4CAF50"/>
    <circle cx="337" cy="141" r="5" fill="#4CAF50"/>
    <circle cx="378" cy="174" r="5" fill="#4CAF50"/>
    <circle cx="419" cy="173" r="5" fill="#4CAF50"/>

    <polyline fill="none" stroke="#FF5722" stroke-width="3" stroke-linecap="round" stroke-linejoin="round"
      points="50,85 91,137 132,119 173,107 214,116 255,98 296,126 337,61 378,106 419,111"/>
    <circle cx="50" cy="85" r="5" fill="#FF5722"/>
    <circle cx="91" cy="137" r="5" fill="#FF5722"/>
    <circle cx="132" cy="119" r="5" fill="#FF5722"/>
    <circle cx="173" cy="107" r="5" fill="#FF5722"/>
    <circle cx="214" cy="116" r="5" fill="#FF5722"/>
    <circle cx="255" cy="98" r="5" fill="#FF5722"/>
    <circle cx="296" cy="126" r="5" fill="#FF5722"/>
    <circle cx="337" cy="61" r="5" fill="#FF5722"/>
    <circle cx="378" cy="106" r="5" fill="#FF5722"/>
    <circle cx="419" cy="111" r="5" fill="#FF5722"/>

    <g transform="translate(60, 0)">
      <line x1="0" y1="0" x2="20" y2="0" stroke="#4CAF50" stroke-width="3"/>
      <circle cx="10" cy="0" r="4" fill="#4CAF50"/>
      <text x="28" y="4" font-size="11" fill="#333">mem1 (平均 13.4K/轮)</text>
    </g>
    <g transform="translate(220, 0)">
      <line x1="0" y1="0" x2="20" y2="0" stroke="#FF5722" stroke-width="3"/>
      <circle cx="10" cy="0" r="4" fill="#FF5722"/>
      <text x="28" y="4" font-size="11" fill="#333">mem0 (平均 25.8K/轮)</text>
    </g>
  </g>

  <!-- 底部数据卡片 -->
  <g transform="translate(50, 380)">
    <rect x="0" y="0" width="800" height="100" fill="#f8f9fa" rx="12" stroke="#e9ecef" stroke-width="1"/>

    <text x="400" y="25" text-anchor="middle" font-size="14" font-weight="600" fill="#333">📈 关键指标汇总</text>

    <g transform="translate(40, 50)">
      <text x="0" y="0" font-size="11" fill="#666">10 轮总消耗</text>
      <text x="0" y="25" font-size="18" font-weight="700" fill="#4CAF50">134,196</text>
      <text x="0" y="42" font-size="10" fill="#999">vs 257,747</text>
    </g>

    <g transform="translate(180, 50)">
      <text x="0" y="0" font-size="11" fill="#666">单轮平均</text>
      <text x="0" y="25" font-size="18" font-weight="700" fill="#4CAF50">13,420</text>
      <text x="0" y="42" font-size="10" fill="#999">vs 25,775</text>
    </g>

    <g transform="translate(320, 50)">
      <text x="0" y="0" font-size="11" fill="#666">单轮峰值</text>
      <text x="0" y="25" font-size="18" font-weight="700" fill="#4CAF50">19,324</text>
      <text x="0" y="42" font-size="10" fill="#999">vs 34,942</text>
    </g>

    <g transform="translate(460, 50)">
      <text x="0" y="0" font-size="11" fill="#666">单轮最低</text>
      <text x="0" y="25" font-size="18" font-weight="700" fill="#4CAF50">8,632</text>
      <text x="0" y="42" font-size="10" fill="#999">vs 20,067</text>
    </g>

    <g transform="translate(620, 35)">
      <rect x="0" y="0" width="140" height="55" fill="#4CAF50" rx="10"/>
      <text x="70" y="22" text-anchor="middle" font-size="12" fill="white" font-weight="600">平均节省</text>
      <text x="70" y="45" text-anchor="middle" font-size="24" fill="white" font-weight="700">47.9%</text>
    </g>
  </g>

  <text x="450" y="495" text-anchor="middle" font-size="11" fill="#888">💡 在保持相同记忆质量的前提下，mem1 显著降低 LLM API 调用成本</text>
</svg>